# xmcd CD database file
#
# Track frame offsets:
#	150
#	12480
#	32267
#	43589
#	57920
#	70520
#	83763
#
# Disc length: 1266 seconds
#
# Revision: 1
# Processed by: cddbd v1.5.2PL0 Copyright (c) Steve Scherf et al.
# Submitted via: CDex 1.70beta3
#
DISCID=4a04f007
DTITLE=Female Vocal Best Selection - The Cool Jazz Collection 70
DYEAR=1900
DGENRE=Jazz
TTITLE0=Take the "A" Train
TTITLE1=You'd Be So Nice to Come Home to
TTITLE2=What a Diff'rence a Day Made
TTITLE3=Black Coffee
TTITLE4=Lover Man
TTITLE5=Old Devil Moon
TTITLE6=The Shadow of Your Smile
EXTD=
EXTT0=
EXTT1=
EXTT2=
EXTT3=
EXTT4=
EXTT5=
EXTT6=
PLAYORDER=
